<?xml version="1.0" encoding="UTF-8"?>
<svg version="1.1" xmlns="http://www.w3.org/2000/svg" width="275" height="183">
<path d="M0 0 C90.75 0 181.5 0 275 0 C275 60.39 275 120.78 275 183 C184.25 183 93.5 183 0 183 C0 122.61 0 62.22 0 0 Z " fill="#0D1015" transform="translate(0,0)"/>
<path d="M0 0 C2.28125 1.35546875 2.28125 1.35546875 4.5 3.1875 C5.66595703 4.14849609 5.66595703 4.14849609 6.85546875 5.12890625 C12.70379528 10.23154452 19.27903647 16.10981973 21 24 C20.94986673 27.71487517 20.55107547 31.32837668 20 35 C19.49210937 34.61328125 18.98421875 34.2265625 18.4609375 33.828125 C7.02480412 24.8466184 7.02480412 24.8466184 -7 23 C-9.65049816 23.92929051 -12.20191339 24.97849543 -14.765625 26.125 C-17 27 -17 27 -20 27 C-20.25523438 27.59296875 -20.51046875 28.1859375 -20.7734375 28.796875 C-22.11816498 31.21224538 -23.49214367 32.51211706 -25.625 34.25 C-26.57246094 35.03117187 -26.57246094 35.03117187 -27.5390625 35.828125 C-28.02117187 36.21484375 -28.50328125 36.6015625 -29 37 C-28.28353611 34.85060833 -27.5645381 32.70259781 -26.83203125 30.55859375 C-26.31973809 28.98323215 -25.84899315 27.3927597 -25.44921875 25.78515625 C-22.80459722 15.83634192 -14.58248182 7.67930531 -7 1 C-4.42335435 -0.28832282 -2.86490533 -0.28227744 0 0 Z " fill="#727472" transform="translate(137,18)"/>
<path d="M0 0 C0.13605482 8.39004715 -0.24524649 16.64380043 -1 25 C-2.32 25 -3.64 25 -5 25 C-5.33 26.65 -5.66 28.3 -6 30 C-6.66 30 -7.32 30 -8 30 C-8.433125 30.8971875 -8.433125 30.8971875 -8.875 31.8125 C-10 34 -10 34 -12 37 C-12.66 37 -13.32 37 -14 37 C-14.33 37.99 -14.66 38.98 -15 40 C-16.65 40 -18.3 40 -20 40 C-18.02 37.69 -16.04 35.38 -14 33 C-16.97 33 -19.94 33 -23 33 C-23.33 31.68 -23.66 30.36 -24 29 C-24.763125 29.33 -25.52625 29.66 -26.3125 30 C-29 31 -29 31 -32 31 C-32.495 32.485 -32.495 32.485 -33 34 C-33 32.35 -33 30.7 -33 29 C-33.99 29 -34.98 29 -36 29 C-35.39549847 22.95498471 -33.75014469 17.48794869 -29.15625 13.33203125 C-24.09307607 9.76396122 -18.61989882 7.43357118 -12.87890625 5.16796875 C-10.29708049 4.12052519 -7.84796245 2.96661851 -5.375 1.6875 C-2 0 -2 0 0 0 Z " fill="#4E5051" transform="translate(112,91)"/>
<path d="M0 0 C3.00402761 1.38727664 6.00239838 2.7863988 9 4.1875 C10.25876953 4.76854492 10.25876953 4.76854492 11.54296875 5.36132812 C25.95609621 12.12097317 25.95609621 12.12097317 28.25 16.25 C27.81264303 21.06092664 25.88273329 26.14488627 22.40234375 29.57421875 C20.27346918 31.73867339 20.32559762 34.06962142 20 37 C18.35 37 16.7 37 15 37 C15 37.66 15 38.32 15 39 C12 41 12 41 9.3125 40.625 C8.549375 40.41875 7.78625 40.2125 7 40 C7 38.68 7 37.36 7 36 C8.485 35.505 8.485 35.505 10 35 C9.505 33.515 9.505 33.515 9 32 C8.34 32 7.68 32 7 32 C7 30.68 7 29.36 7 28 C6.01 27.67 5.02 27.34 4 27 C0.77264264 19.92463963 -0.05482803 11.94154446 -0.01953125 4.25390625 C-0.01671143 3.45412354 -0.0138916 2.65434082 -0.01098633 1.83032227 C-0.00736084 1.22631592 -0.00373535 0.62230957 0 0 Z " fill="#3A3D3E" transform="translate(161,92)"/>
<path d="M0 0 C-0.62351927 6.44303246 -1.6882353 12.66314372 -3 19 C-6.5830611 19.33630329 -10.16648924 19.66852525 -13.75 20 C-15.27367188 20.14308594 -15.27367188 20.14308594 -16.828125 20.2890625 C-17.8078125 20.37929687 -18.7875 20.46953125 -19.796875 20.5625 C-21.14797363 20.68818359 -21.14797363 20.68818359 -22.52636719 20.81640625 C-24.67919098 20.97618946 -26.84125478 21 -29 21 C-29.33 18.69 -29.66 16.38 -30 14 C-24.50817674 10.3035805 -19.05671577 7.66018631 -12.9140625 5.203125 C-10.32770239 4.13529804 -7.85960124 2.97045773 -5.375 1.6875 C-2 0 -2 0 0 0 Z " fill="#787977" transform="translate(112,91)"/>
<path d="M0 0 C2.28125 1.35546875 2.28125 1.35546875 4.5 3.1875 C5.66595703 4.14849609 5.66595703 4.14849609 6.85546875 5.12890625 C12.28064081 9.86234416 17.941711 14.88954709 20 22 C19.505 23.485 19.505 23.485 19 25 C18.54625 24.525625 18.0925 24.05125 17.625 23.5625 C16.06741796 21.90972192 16.06741796 21.90972192 14 21 C13.60425781 20.16984375 13.20851562 19.3396875 12.80078125 18.484375 C11.18558604 15.67293808 11.18558604 15.67293808 7.85546875 15.328125 C6.64503906 15.30234375 5.43460938 15.2765625 4.1875 15.25 C-2.75406671 15.0416786 -2.75406671 15.0416786 -6.25 14.44921875 C-9.07506059 13.83232358 -9.07506059 13.83232358 -12.1875 14.5625 C-15 15 -15 15 -18 13 C-6.42518856 -0.80073671 -6.42518856 -0.80073671 0 0 Z " fill="#AEB1B2" transform="translate(137,18)"/>
<path d="M0 0 C3.00402761 1.38727664 6.00239838 2.7863988 9 4.1875 C10.25876953 4.76854492 10.25876953 4.76854492 11.54296875 5.36132812 C26.27629227 12.27114264 26.27629227 12.27114264 28.125 16.6875 C28 19 28 19 26 21 C22.375 20.625 22.375 20.625 19 20 C18.67 20.99 18.34 21.98 18 23 C18 22.34 18 21.68 18 21 C17.01 21.33 16.02 21.66 15 22 C11.31634096 21.28507933 8.1490458 20.0426243 5 18 C3.25891385 15.12720785 2.65270334 12.26919237 2 9 C1.608125 7.88625 1.21625 6.7725 0.8125 5.625 C0 3 0 3 0 0 Z " fill="#6F706C" transform="translate(161,92)"/>
<path d="M0 0 C0.30679688 0.61746094 0.61359375 1.23492187 0.9296875 1.87109375 C1.63812181 3.28020579 2.36976716 4.67790646 3.125 6.0625 C4 8 4 8 4 11 C4.7425 10.505 5.485 10.01 6.25 9.5 C9 8 9 8 13 8 C12.125 12.75 12.125 12.75 11 15 C11.99 15.33 12.98 15.66 14 16 C14.33 14.68 14.66 13.36 15 12 C15.66 12 16.32 12 17 12 C17.33 10.35 17.66 8.7 18 7 C19.65 6.67 21.3 6.34 23 6 C23 7.65 23 9.3 23 11 C22.01 11.33 21.02 11.66 20 12 C20.061875 12.78375 20.12375 13.5675 20.1875 14.375 C20.0946875 15.674375 20.0946875 15.674375 20 17 C16.64672361 19.23551759 16.09256343 19.17283528 12.3125 18.625 C11.50425781 18.51414062 10.69601563 18.40328125 9.86328125 18.2890625 C9.24839844 18.19367188 8.63351563 18.09828125 8 18 C7.67 16.68 7.34 15.36 7 14 C6.236875 14.33 5.47375 14.66 4.6875 15 C2 16 2 16 -1 16 C-1.33 16.99 -1.66 17.98 -2 19 C-2 17.35 -2 15.7 -2 14 C-2.99 14 -3.98 14 -5 14 C-4.46515599 8.65155992 -2.53309233 4.64203897 0 0 Z " fill="#2E3233" transform="translate(81,106)"/>
<path d="M0 0 C2.60578866 0.08695958 5.2081279 0.19381408 7.8125 0.3125 C8.55048828 0.33505859 9.28847656 0.35761719 10.04882812 0.38085938 C15.5170461 0.65303312 15.5170461 0.65303312 17.88671875 2.35546875 C18.9315484 3.89888378 19.96614255 5.44921383 21 7 C23.2322233 9.10551633 23.2322233 9.10551633 26 10 C25.67 13.63 25.34 17.26 25 21 C23.80375 20.0925 22.6075 19.185 21.375 18.25 C16.78526467 14.81175304 12.22780888 11.41283487 7 9 C8.98 9 10.96 9 13 9 C13 8.34 13 7.68 13 7 C12.01 6.67 11.02 6.34 10 6 C10.99 5.67 11.98 5.34 13 5 C12.02819382 3.81100426 12.02819382 3.81100426 10.25 3.8671875 C4.75995455 3.88625016 -0.55287858 4.30830204 -6 5 C-6 4.67 -6 4.34 -6 4 C-4.35 4 -2.7 4 -1 4 C-0.67 2.68 -0.34 1.36 0 0 Z " fill="#6D6F6F" transform="translate(132,32)"/>
<path d="M0 0 C1.299375 0.433125 1.299375 0.433125 2.625 0.875 C4.9281693 1.08734894 7.23102943 1.24876983 9.5390625 1.3984375 C12.04945974 1.97197395 12.99287627 2.93100549 14.625 4.875 C15.285 4.215 15.945 3.555 16.625 2.875 C23.53343663 11.63003132 23.53343663 11.63003132 24.625 15.875 C24.13 17.36 24.13 17.36 23.625 18.875 C23.17125 18.400625 22.7175 17.92625 22.25 17.4375 C20.69241796 15.78472192 20.69241796 15.78472192 18.625 14.875 C18.22667969 14.04613281 17.82835937 13.21726562 17.41796875 12.36328125 C15.81035817 9.55261134 15.81035817 9.55261134 12.48828125 9.16796875 C11.31652344 9.13316406 10.14476562 9.09835938 8.9375 9.0625 C7.75800781 9.01480469 6.57851562 8.96710937 5.36328125 8.91796875 C4.00783203 8.89669922 4.00783203 8.89669922 2.625 8.875 C2.955 7.555 3.285 6.235 3.625 4.875 C0.61759901 4.78096386 0.61759901 4.78096386 -2.3125 5.4375 C-5.21997515 5.85285359 -6.63864067 5.67285855 -9.375 4.875 C-3.3123073 -0.17433196 -3.3123073 -0.17433196 0 0 Z " fill="#959798" transform="translate(132.375,24.125)"/>
<path d="M0 0 C3.00402761 1.38727664 6.00239838 2.7863988 9 4.1875 C10.25876953 4.76854492 10.25876953 4.76854492 11.54296875 5.36132812 C26.27629227 12.27114264 26.27629227 12.27114264 28.125 16.6875 C28 19 28 19 26 21 C26 20.01 26 19.02 26 18 C25.34 18 24.68 18 24 18 C24 17.34 24 16.68 24 16 C21.69 16 19.38 16 17 16 C16.67 14.68 16.34 13.36 16 12 C11.05 10.68 6.1 9.36 1 8 C0.67 5.36 0.34 2.72 0 0 Z " fill="#7E7F7D" transform="translate(161,92)"/>
<path d="M0 0 C2.31 0 4.62 0 7 0 C7.33 0.66 7.66 1.32 8 2 C6.76429051 4.90391731 5.71549169 7.33954613 3.375 9.5 C1.32389903 11.7375647 1.32683669 14.0584698 1 17 C-1.31 17 -3.62 17 -6 17 C-7.1875 14.75 -7.1875 14.75 -8 12 C-6.875 10 -6.875 10 -5 8 C-1.9287284 4.3266804 -1.9287284 4.3266804 0 0 Z " fill="#4A4D4E" transform="translate(180,112)"/>
<path d="M0 0 C-0.08746284 1.43861294 -0.19565348 2.87597508 -0.3125 4.3125 C-0.37050781 5.11300781 -0.42851563 5.91351563 -0.48828125 6.73828125 C-1.08838825 9.39066259 -1.85708967 10.36503879 -4 12 C-4.66 12 -5.32 12 -6 12 C-6 11.34 -6 10.68 -6 10 C-6.70125 10.33 -7.4025 10.66 -8.125 11 C-11.34160154 12.11881793 -13.61830655 12.36757538 -17 12 C-18.6796875 10.48046875 -18.6796875 10.48046875 -20 9 C-16 7 -12 5 -8 3 C-6.37964844 2.15888672 -6.37964844 2.15888672 -4.7265625 1.30078125 C-2 0 -2 0 0 0 Z " fill="#7A7B7A" transform="translate(112,91)"/>
<path d="M0 0 C0.66 0.33 1.32 0.66 2 1 C3.99021521 0.90276549 3.99021521 0.90276549 6.125 0.5625 C7.40375 0.376875 8.6825 0.19125 10 0 C10.33 0.66 10.66 1.32 11 2 C10.67 2.66 10.34 3.32 10 4 C8.02 4 6.04 4 4 4 C4 4.66 4 5.32 4 6 C-2.625 9 -2.625 9 -6 9 C-6.66 10.32 -7.32 11.64 -8 13 C-7.58789699 7.74568665 -6.7645482 4.7645482 -3 1 C-2.01 0.67 -1.02 0.34 0 0 Z " fill="#949694" transform="translate(121,31)"/>
<path d="M0 0 C0.33 0 0.66 0 1 0 C1.22745015 3.37399376 1.42851745 6.74907252 1.625 10.125 C1.68945312 11.07632813 1.75390625 12.02765625 1.8203125 13.0078125 C2.10181919 18.07493298 2.3077481 22.32377358 0 27 C-2.625 28.375 -2.625 28.375 -5 29 C-5 27.68 -5 26.36 -5 25 C-3.68 25 -2.36 25 -1 25 C-1.01160156 24.20078125 -1.02320312 23.4015625 -1.03515625 22.578125 C-1.09748443 14.99189461 -0.76154197 7.54742488 0 0 Z M-8 30 C-7.34 30 -6.68 30 -6 30 C-7 32 -8 34 -9 36 C-8.34 36.66 -7.68 37.32 -7 38 C-7.99 39.485 -7.99 39.485 -9 41 C-9.66 41 -10.32 41 -11 41 C-11.33 41.66 -11.66 42.32 -12 43 C-11.49396008 40.83125748 -11.00016187 39.00032373 -10 37 C-10.66 37 -11.32 37 -12 37 C-10.79618552 34.50638429 -9.54571278 32.31856917 -8 30 Z " fill="#26292B" transform="translate(112,91)"/>
<path d="M0 0 C1.32 0.33 2.64 0.66 4 1 C4 1.66 4 2.32 4 3 C4.99 3 5.98 3 7 3 C7 5.31 7 7.62 7 10 C7.98742187 9.98839844 8.97484375 9.97679688 9.9921875 9.96484375 C11.27351562 9.95582031 12.55484375 9.94679688 13.875 9.9375 C15.15117187 9.92589844 16.42734375 9.91429688 17.7421875 9.90234375 C21 10 21 10 23 11 C22.67 11.66 22.34 12.32 22 13 C19.525 12.505 19.525 12.505 17 12 C16.67 12.99 16.34 13.98 16 15 C16 14.34 16 13.68 16 13 C15.01 13.33 14.02 13.66 13 14 C9.27319082 13.33187138 6.12639437 12.14215911 3 10 C1.28836664 6.76410143 0.53686579 3.60663684 0 0 Z " fill="#565755" transform="translate(163,100)"/>
<path d="M0 0 C0.66 0.33 1.32 0.66 2 1 C2 1.66 2 2.32 2 3 C1.030625 3.639375 0.06125 4.27875 -0.9375 4.9375 C-4.24255225 6.71061007 -4.24255225 6.71061007 -5 10 C-0.85906302 10.20970559 -0.85906302 10.20970559 3 9 C4.54023996 8.93049459 6.08334988 8.91547643 7.625 8.9375 C8.85089844 8.95103516 8.85089844 8.95103516 10.1015625 8.96484375 C11.04128906 8.98224609 11.04128906 8.98224609 12 9 C11.67 9.66 11.34 10.32 11 11 C9.824375 10.9071875 9.824375 10.9071875 8.625 10.8125 C7.325625 10.9053125 7.325625 10.9053125 6 11 C5.01 12.485 5.01 12.485 4 14 C3.13375 13.814375 2.2675 13.62875 1.375 13.4375 C-1.97640696 12.83207827 -1.97640696 12.83207827 -5.1875 13.5625 C-8 14 -8 14 -11 12 C-3.70159453 3.55353075 -3.70159453 3.55353075 0 0 Z " fill="#A2A6A7" transform="translate(130,19)"/>
<path d="M0 0 C0.639375 0.33 1.27875 0.66 1.9375 1 C-0.0425 1.99 -0.0425 1.99 -2.0625 3 C-2.0625 3.66 -2.0625 4.32 -2.0625 5 C-3.320625 5.020625 -4.57875 5.04125 -5.875 5.0625 C-6.58269531 5.07410156 -7.29039062 5.08570313 -8.01953125 5.09765625 C-10.0625 5 -10.0625 5 -13.0625 4 C-13.0625 3.34 -13.0625 2.68 -13.0625 2 C-14.7125 2 -16.3625 2 -18.0625 2 C-12.45841542 -1.73605639 -6.35572316 -2.07533818 0 0 Z " fill="#8E9090" transform="translate(147.0625,36)"/>
<path d="M0 0 C0.99 0 1.98 0 3 0 C3.33 0.99 3.66 1.98 4 3 C2.7564779 4.47259196 1.5079627 5.94185701 0.21484375 7.37109375 C-1.56503619 9.75762087 -1.79175557 12.08457792 -2 15 C-3.65 15 -5.3 15 -7 15 C-5.73082115 9.46176502 -3.79742302 4.33830226 0 0 Z " fill="#323638" transform="translate(183,114)"/>
<path d="M0 0 C0.33 0 0.66 0 1 0 C0.67 3.3 0.34 6.6 0 10 C-7.01805857 11.10087193 -13.90565767 11.09733092 -21 11 C-21 10.67 -21 10.34 -21 10 C-13.08 9.505 -13.08 9.505 -5 9 C-5 8.34 -5 7.68 -5 7 C-5.66 6.67 -6.32 6.34 -7 6 C-6.01 6 -5.02 6 -4 6 C-4.83333333 3.83333333 -4.83333333 3.83333333 -7 3 C-3.25 1.875 -3.25 1.875 -1 3 C-0.67 2.01 -0.34 1.02 0 0 Z " fill="#696A67" transform="translate(109,100)"/>
<path d="M0 0 C-0.66 1.98 -1.32 3.96 -2 6 C-2.66 6 -3.32 6 -4 6 C-4.33 7.32 -4.66 8.64 -5 10 C-6.32 9.67 -7.64 9.34 -9 9 C-8.01 6.69 -7.02 4.38 -6 2 C-10.455 3.485 -10.455 3.485 -15 5 C-15 4.01 -15 3.02 -15 2 C-10.13948404 -0.59227518 -5.34728867 -0.18689553 0 0 Z " fill="#444849" transform="translate(100,112)"/>
<path d="M0 0 C1.68426809 3.25530808 2.88786134 6.50470706 4 10 C2.68 11.32 1.36 12.64 0 14 C-1 11 -1 11 0 8 C-0.66 8 -1.32 8 -2 8 C-2.33 8.99 -2.66 9.98 -3 11 C-4 8 -4 8 -3.22265625 5.95703125 C-2.83980469 5.24933594 -2.45695312 4.54164062 -2.0625 3.8125 C-1.68222656 3.09707031 -1.30195312 2.38164063 -0.91015625 1.64453125 C-0.60980469 1.10183594 -0.30945313 0.55914062 0 0 Z " fill="#2E3134" transform="translate(81,106)"/>
<path d="M0 0 C1.84904262 0.50848672 3.68072387 1.08107462 5.5 1.6875 C5.5 2.3475 5.5 3.0075 5.5 3.6875 C0.25614911 5.4354503 -3.97322267 5.88142201 -9.5 5.6875 C-3.57063197 -0.446329 -3.57063197 -0.446329 0 0 Z " fill="#868789" transform="translate(132.5,24.3125)"/>
<path d="M0 0 C0.66 0 1.32 0 2 0 C2 1.65 2 3.3 2 5 C2.99 4.67 3.98 4.34 5 4 C5.33 3.34 5.66 2.68 6 2 C6.33 3.32 6.66 4.64 7 6 C4 8 4 8 1 8 C0.67 8.99 0.34 9.98 0 11 C0 9.35 0 7.7 0 6 C-0.99 6 -1.98 6 -3 6 C-2.42655063 3.13275314 -2.1385485 2.1385485 0 0 Z " fill="#212528" transform="translate(79,114)"/>
<path d="M0 0 C0 0.66 0 1.32 0 2 C-3.39731629 4.09065618 -6.04269405 4.42098999 -10 4 C-11.875 2.5 -11.875 2.5 -13 1 C-8.20862412 -0.6290678 -4.94367454 -1.20577428 0 0 Z " fill="#8B8C8B" transform="translate(105,99)"/>
<path d="M0 0 C2.6875 0.3125 2.6875 0.3125 5 1 C4.01 1.495 4.01 1.495 3 2 C3 2.66 3 3.32 3 4 C1.3767313 4.6708712 -0.24867578 5.33657029 -1.875 6 C-3.23238281 6.556875 -3.23238281 6.556875 -4.6171875 7.125 C-7 8 -7 8 -9 8 C-8.25 6.0625 -8.25 6.0625 -7 4 C-5.0625 3.4375 -5.0625 3.4375 -3 3 C-2.525625 2.46375 -2.05125 1.9275 -1.5625 1.375 C-0.7890625 0.694375 -0.7890625 0.694375 0 0 Z " fill="#878987" transform="translate(124,38)"/>
<path d="M0 0 C3.63 1.65 7.26 3.3 11 5 C10.67 5.66 10.34 6.32 10 7 C7.93359375 7.4140625 7.93359375 7.4140625 5.4375 7.625 C4.61121094 7.69976562 3.78492188 7.77453125 2.93359375 7.8515625 C1.97646484 7.92503906 1.97646484 7.92503906 1 8 C0.67 5.36 0.34 2.72 0 0 Z " fill="#787B7C" transform="translate(161,92)"/>
<path d="M0 0 C1.32 0.66 2.64 1.32 4 2 C0.66666667 5.33333333 -2.66666667 8.66666667 -6 12 C-6.33 10.68 -6.66 9.36 -7 8 C-6.175 7.38125 -5.35 6.7625 -4.5 6.125 C-3.2625 5.073125 -3.2625 5.073125 -2 4 C-2 3.34 -2 2.68 -2 2 C-1.34 2 -0.68 2 0 2 C0 1.34 0 0.68 0 0 Z " fill="#15191A" transform="translate(124,20)"/>
<path d="M0 0 C1.32 0.66 2.64 1.32 4 2 C4 2.66 4 3.32 4 4 C4.66 4 5.32 4 6 4 C6 4.66 6 5.32 6 6 C3 8 3 8 0.3125 7.625 C-0.450625 7.41875 -1.21375 7.2125 -2 7 C-2 5.68 -2 4.36 -2 3 C-1.01 2.67 -0.02 2.34 1 2 C0.67 1.34 0.34 0.68 0 0 Z " fill="#272A2F" transform="translate(170,125)"/>
<path d="M0 0 C0.99 0 1.98 0 3 0 C3 0.99 3 1.98 3 3 C2.01 3.33 1.02 3.66 0 4 C0 2.68 0 1.36 0 0 Z M-3 5 C-2.34 5 -1.68 5 -1 5 C-2 7 -3 9 -4 11 C-3.34 11.66 -2.68 12.32 -2 13 C-2.99 14.485 -2.99 14.485 -4 16 C-4.66 16 -5.32 16 -6 16 C-6.33 16.66 -6.66 17.32 -7 18 C-6.49396008 15.83125748 -6.00016187 14.00032373 -5 12 C-5.66 12 -6.32 12 -7 12 C-5.79618552 9.50638429 -4.54571278 7.31856917 -3 5 Z " fill="#2B2F31" transform="translate(107,116)"/>
<path d="M0 0 C1.22589844 0.01353516 1.22589844 0.01353516 2.4765625 0.02734375 C3.41628906 0.04474609 3.41628906 0.04474609 4.375 0.0625 C4.045 0.7225 3.715 1.3825 3.375 2.0625 C2.59125 2.000625 1.8075 1.93875 1 1.875 C-0.299375 1.9678125 -0.299375 1.9678125 -1.625 2.0625 C-2.615 3.5475 -2.615 3.5475 -3.625 5.0625 C-6.595 4.7325 -9.565 4.4025 -12.625 4.0625 C-12.625 3.0725 -12.625 2.0825 -12.625 1.0625 C-11.67625 1.083125 -10.7275 1.10375 -9.75 1.125 C-6.24263349 1.05485267 -3.59217393 -0.05131677 0 0 Z " fill="#B5B5B7" transform="translate(137.625,27.9375)"/>
<path d="M0 0 C1.32 0 2.64 0 4 0 C4 1.65 4 3.3 4 5 C3.01 5.33 2.02 5.66 1 6 C1 7.65 1 9.3 1 11 C0.67 11 0.34 11 0 11 C0 9.35 0 7.7 0 6 C-0.66 6 -1.32 6 -2 6 C-1.125 1.125 -1.125 1.125 0 0 Z " fill="#383C3D" transform="translate(100,112)"/>
<path d="M0 0 C2.92965912 2.92965912 3.94133569 5.680053 4.125 9.8125 C4.08375 10.534375 4.0425 11.25625 4 12 C3.67 11.01 3.34 10.02 3 9 C1.68 9.33 0.36 9.66 -1 10 C-2.46726798 6.18510326 -1.43336419 3.70988378 0 0 Z " fill="#292D2E" transform="translate(189,108)"/>
<path d="M0 0 C2.83374881 3.20336822 3.5205537 5.78087253 4 10 C3.38125 9.525625 2.7625 9.05125 2.125 8.5625 C0.09294454 6.97582559 0.09294454 6.97582559 -2 6 C-2.72159424 4.35636866 -3.39351421 2.68949614 -4 1 C-2.68 0.67 -1.36 0.34 0 0 Z " fill="#818383" transform="translate(153,33)"/>
<path d="M0 0 C-1.98 0.99 -1.98 0.99 -4 2 C-4 2.66 -4 3.32 -4 4 C-5.32 4 -6.64 4 -8 4 C-8 3.34 -8 2.68 -8 2 C-9.65 2 -11.3 2 -13 2 C-8.19155649 -1.20562901 -5.57936203 -0.94743883 0 0 Z " fill="#9D9D9D" transform="translate(142,36)"/>
<path d="M0 0 C3.3 0.33 6.6 0.66 10 1 C9 3 9 3 7.14453125 3.6328125 C2.68502511 4.5740148 -1.41164496 5.23530026 -6 5 C-6 4.67 -6 4.34 -6 4 C-4.35 4 -2.7 4 -1 4 C-0.67 2.68 -0.34 1.36 0 0 Z " fill="#434342" transform="translate(132,32)"/>
<path d="M0 0 C1.79275866 3.11910856 2.34290718 5.67682428 2.625 9.25 C2.69976562 10.14203125 2.77453125 11.0340625 2.8515625 11.953125 C2.92503906 12.96632813 2.92503906 12.96632813 3 14 C2.01 14.495 2.01 14.495 1 15 C-1.44723163 9.95258476 -1.77882289 5.33646866 0 0 Z " fill="#2E3136" transform="translate(158,45)"/>
<path d="M0 0 C-1.8244762 1.8244762 -4.7243481 1.34413954 -7.1875 1.5 C-11.52302722 1.77747374 -15.72456629 2.22146882 -20 3 C-18.0744109 0.36647373 -17.03699958 0.00622589 -13.75 -0.546875 C-12.5125 -0.61390625 -11.275 -0.6809375 -10 -0.75 C-8.7625 -0.82734375 -7.525 -0.9046875 -6.25 -0.984375 C-3 -1 -3 -1 0 0 Z " fill="#545655" transform="translate(104,111)"/>
<path d="M0 0 C-1.31177858 2.9262753 -2.75289234 4.75289234 -5 7 C-6.17574711 9.09989652 -6.17574711 9.09989652 -7 11 C-7.99 10.67 -8.98 10.34 -10 10 C-9.34 9.67 -8.68 9.34 -8 9 C-7.690625 8.05125 -7.38125 7.1025 -7.0625 6.125 C-5.60191659 1.82916644 -4.67092465 0 0 0 Z " fill="#181C1F" transform="translate(98,124)"/>
<path d="M0 0 C1.2065625 0.2475 1.2065625 0.2475 2.4375 0.5 C6.65887352 1.09247348 10.74664545 1.08506709 15 1 C15 1.66 15 2.32 15 3 C15.66 3 16.32 3 17 3 C16.67 3.66 16.34 4.32 16 5 C15.34 4.67 14.68 4.34 14 4 C11.62876754 3.76970044 9.25258057 3.58880058 6.875 3.4375 C5.59367188 3.35371094 4.31234375 3.26992187 2.9921875 3.18359375 C1.51105469 3.09271484 1.51105469 3.09271484 0 3 C0 2.01 0 1.02 0 0 Z " fill="#666663" transform="translate(170,107)"/>
<path d="M0 0 C1.67542976 0.28604898 3.34385343 0.61781233 5 1 C4.06725891 2.12894876 3.12859878 3.25300876 2.1875 4.375 C1.66542969 5.00148438 1.14335938 5.62796875 0.60546875 6.2734375 C-1 8 -1 8 -4 10 C-3.52449439 8.51965236 -3.04448784 7.04074979 -2.5625 5.5625 C-2.29566406 4.73878906 -2.02882813 3.91507813 -1.75390625 3.06640625 C-1 1 -1 1 0 0 Z " fill="#6B6D6F" transform="translate(112,45)"/>
<path d="M0 0 C1.32 0.33 2.64 0.66 4 1 C4 1.66 4 2.32 4 3 C4.99 3 5.98 3 7 3 C7 5.31 7 7.62 7 10 C2.78577758 7.11658466 1.23924145 4.95696581 0 0 Z " fill="#5B5D5D" transform="translate(163,100)"/>
<path d="M0 0 C-0.33 1.65 -0.66 3.3 -1 5 C-1.33 4.01 -1.66 3.02 -2 2 C-2.99 2.495 -2.99 2.495 -4 3 C-4.33 3.99 -4.66 4.98 -5 6 C-5.99 6 -6.98 6 -8 6 C-8.33 5.01 -8.66 4.02 -9 3 C-5.55930376 0.70620251 -4.27709699 0 0 0 Z " fill="#363A3B" transform="translate(94,114)"/>
<path d="M0 0 C2.31 0.33 4.62 0.66 7 1 C6.67 1.99 6.34 2.98 6 4 C6.66 4 7.32 4 8 4 C8.66 6.31 9.32 8.62 10 11 C8.0625 9.8125 8.0625 9.8125 6 8 C5.855625 7.154375 5.71125 6.30875 5.5625 5.4375 C5.2840625 4.2309375 5.2840625 4.2309375 5 3 C2.52363988 1.62533375 2.52363988 1.62533375 0 1 C0 0.67 0 0.34 0 0 Z " fill="#585A5A" transform="translate(146,39)"/>
<path d="M0 0 C2.8125 -0.25 2.8125 -0.25 6 0 C7.875 2 7.875 2 9 4 C7 5 7 5 5.0546875 4.44140625 C4.33539063 4.15136719 3.61609375 3.86132812 2.875 3.5625 C2.15054688 3.27503906 1.42609375 2.98757812 0.6796875 2.69140625 C-0.15175781 2.34916016 -0.15175781 2.34916016 -1 2 C-0.67 1.34 -0.34 0.68 0 0 Z " fill="#646563" transform="translate(142,33)"/>
<path d="M0 0 C-0.33 0.99 -0.66 1.98 -1 3 C-1.66 3 -2.32 3 -3 3 C-3.33 3.99 -3.66 4.98 -4 6 C-5.32 5.67 -6.64 5.34 -8 5 C-7 2 -7 2 -5.125 0.8125 C-3 0 -3 0 0 0 Z " fill="#818382" transform="translate(90,102)"/>
<path d="M0 0 C0 1.32 0 2.64 0 4 C-0.99 4.66 -1.98 5.32 -3 6 C-3 5.34 -3 4.68 -3 4 C-3.66 4 -4.32 4 -5 4 C-5 3.34 -5 2.68 -5 2 C-6.32 2.33 -7.64 2.66 -9 3 C-8 1 -8 1 -5.0625 -0.1875 C-2 -1 -2 -1 0 0 Z " fill="#222427" transform="translate(129,42)"/>
<path d="M0 0 C1.32 0 2.64 0 4 0 C3.67 1.65 3.34 3.3 3 5 C-1.455 6.485 -1.455 6.485 -6 8 C-4.37660195 6.29115995 -2.70680947 4.62553283 -1 3 C-0.34 3 0.32 3 1 3 C0.67 2.01 0.34 1.02 0 0 Z " fill="#B9BCBD" transform="translate(131,19)"/>
<path d="M0 0 C0.33 0 0.66 0 1 0 C1 2.64 1 5.28 1 8 C-0.32 8 -1.64 8 -3 8 C-3.33 6.35 -3.66 4.7 -4 3 C-2.68 3 -1.36 3 0 3 C0 2.01 0 1.02 0 0 Z " fill="#3D3F3F" transform="translate(110,108)"/>
<path d="M0 0 C0 2.64 0 5.28 0 8 C-0.99 8 -1.98 8 -3 8 C-2.67 7.67 -2.34 7.34 -2 7 C-2.66 6.34 -3.32 5.68 -4 5 C-4 4.01 -4 3.02 -4 2 C-1 0 -1 0 0 0 Z " fill="#45494A" transform="translate(107,112)"/>
<path d="M0 0 C2 0.3125 2 0.3125 4 1 C4.33 1.66 4.66 2.32 5 3 C4.21625 3.0825 3.4325 3.165 2.625 3.25 C-0.14749104 3.72806339 -0.14749104 3.72806339 -1.3125 6.0625 C-1.6528125 7.0215625 -1.6528125 7.0215625 -2 8 C-1.125 1.125 -1.125 1.125 0 0 Z " fill="#868888" transform="translate(115,36)"/>
<path d="M0 0 C0.33 0.66 0.66 1.32 1 2 C1.66 2 2.32 2 3 2 C3.33 1.34 3.66 0.68 4 0 C4.99 0 5.98 0 7 0 C6.34 1.32 5.68 2.64 5 4 C3.35 3.67 1.7 3.34 0 3 C0 3.66 0 4.32 0 5 C-0.66 4.67 -1.32 4.34 -2 4 C-1.34 2.68 -0.68 1.36 0 0 Z " fill="#090B0D" transform="translate(124,17)"/>
<path d="M0 0 C0.66 0 1.32 0 2 0 C1.6875 1.9375 1.6875 1.9375 1 4 C0.01 4.33 -0.98 4.66 -2 5 C-2 5.66 -2 6.32 -2 7 C-3.32 6.67 -4.64 6.34 -6 6 C-5.195625 5.7525 -4.39125 5.505 -3.5625 5.25 C-0.828919 4.27761141 -0.828919 4.27761141 -0.1875 1.875 C-0.125625 1.25625 -0.06375 0.6375 0 0 Z " fill="#272A2F" transform="translate(102,140)"/>
<path d="M0 0 C1.32 0.33 2.64 0.66 4 1 C3.67 1.99 3.34 2.98 3 4 C0.36 4 -2.28 4 -5 4 C-2 2 -2 2 0 2 C0 1.34 0 0.68 0 0 Z " fill="#9E9E9C" transform="translate(128,31)"/>
<path d="M0 0 C1.20628008 2.33214148 2.1654738 4.49642139 3 7 C1.35 6.67 -0.3 6.34 -2 6 C-1.49396008 3.83125748 -1.00016187 2.00032373 0 0 Z " fill="#474948" transform="translate(81,106)"/>
<path d="M0 0 C0.99 0.66 1.98 1.32 3 2 C1.41727399 3.58272601 -0.38034003 3.34735747 -2.5625 3.5625 C-3.80193359 3.68818359 -3.80193359 3.68818359 -5.06640625 3.81640625 C-6.02353516 3.90728516 -6.02353516 3.90728516 -7 4 C-7 3.34 -7 2.68 -7 2 C-3.6875 0.875 -3.6875 0.875 0 0 Z " fill="#666868" transform="translate(169,96)"/>
</svg>
